<mxfile host="app.diagrams.net" modified="2021-11-09T12:02:38.444Z" agent="5.0 (Windows NT 10.0; Win64; x64) AppleWebKit/537.36 (KHTML, like Gecko) Chrome/95.0.4638.69 Safari/537.36" etag="g7vosXHy8yuFRQ-__9m_" version="15.7.0" type="github">
  <diagram id="sQ8EXhfYu_Z4RW1TYD9f" name="Page-1">
    <mxGraphModel dx="1422" dy="762" grid="1" gridSize="10" guides="1" tooltips="1" connect="1" arrows="1" fold="1" page="1" pageScale="1" pageWidth="827" pageHeight="1169" math="0" shadow="0">
      <root>
        <mxCell id="0" />
        <mxCell id="1" parent="0" />
        <mxCell id="wOnGFkAYj0Utu0_wV-MN-16" value="구현" style="swimlane;fillColor=#dae8fc;strokeColor=#6c8ebf;" parent="1" vertex="1">
          <mxGeometry x="290" y="50" width="281" height="640" as="geometry" />
        </mxCell>
        <mxCell id="HhCp5bAyaU2a7FvYHvNe-1" value="DialogueBaseWidget에 있는 프로젝트 의존적인 코드 이동 시킬 것" style="rounded=1;whiteSpace=wrap;html=1;" parent="wOnGFkAYj0Utu0_wV-MN-16" vertex="1">
          <mxGeometry x="10" y="30" width="159" height="60" as="geometry" />
        </mxCell>
        <mxCell id="wOnGFkAYj0Utu0_wV-MN-17" value="분석 | 논의" style="swimlane;strokeColor=#82b366;fillColor=#D5E8D4;" parent="1" vertex="1">
          <mxGeometry x="49" y="50" width="200" height="360" as="geometry" />
        </mxCell>
        <mxCell id="lwPaKuRbPRr6uR4jAGTN-13" value="OuterPrivate 초기화 시점 찾기" style="rounded=1;whiteSpace=wrap;html=1;" parent="wOnGFkAYj0Utu0_wV-MN-17" vertex="1">
          <mxGeometry x="20.5" y="30" width="159" height="60" as="geometry" />
        </mxCell>
        <mxCell id="wOnGFkAYj0Utu0_wV-MN-18" value="고려" style="swimlane;fillColor=#e1d5e7;strokeColor=#9673a6;" parent="1" vertex="1">
          <mxGeometry x="600" y="50" width="220" height="340" as="geometry" />
        </mxCell>
        <mxCell id="MTrl5ynQiznJmTlUDSWs-4" value="대기 | 요청" style="swimlane;strokeColor=#d79b00;fillColor=#ffe6cc;" parent="1" vertex="1">
          <mxGeometry x="49" y="430" width="200" height="260" as="geometry" />
        </mxCell>
        <mxCell id="9A0mLHsorhuxDrabdEOj-9" value="에러" style="swimlane;fillColor=#f8cecc;strokeColor=#b85450;" parent="1" vertex="1">
          <mxGeometry x="600" y="410" width="500" height="280" as="geometry" />
        </mxCell>
        <mxCell id="hDPYIisuoytdxOGGVnbc-3" value="폐기 | 완료" style="swimlane;strokeColor=#666666;fillColor=#f5f5f5;fontColor=#333333;" parent="1" vertex="1">
          <mxGeometry x="1120" y="50" width="460" height="980" as="geometry" />
        </mxCell>
        <mxCell id="dXj6saH3smWJqcKDuyGU-1" value="선택된 액션 포커싱" style="rounded=1;whiteSpace=wrap;html=1;" parent="hDPYIisuoytdxOGGVnbc-3" vertex="1">
          <mxGeometry x="15" y="30" width="159" height="60" as="geometry" />
        </mxCell>
        <mxCell id="0PK8Xxotu-AW9bvvwrs6-1" value="탐색 위젯 추가" style="rounded=1;whiteSpace=wrap;html=1;" parent="hDPYIisuoytdxOGGVnbc-3" vertex="1">
          <mxGeometry x="15" y="100" width="159" height="60" as="geometry" />
        </mxCell>
        <mxCell id="lwPaKuRbPRr6uR4jAGTN-5" value="진행도 표시 바 수정" style="rounded=1;whiteSpace=wrap;html=1;" parent="hDPYIisuoytdxOGGVnbc-3" vertex="1">
          <mxGeometry x="15" y="170" width="159" height="60" as="geometry" />
        </mxCell>
        <mxCell id="dXj6saH3smWJqcKDuyGU-2" value="WASD를 통해 선택 액션 변경" style="rounded=1;whiteSpace=wrap;html=1;" parent="hDPYIisuoytdxOGGVnbc-3" vertex="1">
          <mxGeometry x="15" y="240" width="159" height="60" as="geometry" />
        </mxCell>
        <mxCell id="475E-KhLen9UFLIVENfY-2" value="액션 또는 레이어 추가시 Empty Action 자동생성" style="rounded=1;whiteSpace=wrap;html=1;" parent="hDPYIisuoytdxOGGVnbc-3" vertex="1">
          <mxGeometry x="15" y="310" width="159" height="60" as="geometry" />
        </mxCell>
        <mxCell id="475E-KhLen9UFLIVENfY-1" value="다이얼로그 변경 기능 추가" style="rounded=1;whiteSpace=wrap;html=1;" parent="hDPYIisuoytdxOGGVnbc-3" vertex="1">
          <mxGeometry x="15" y="380" width="159" height="60" as="geometry" />
        </mxCell>
        <mxCell id="ZNA3MldTxm_1SV7WsNPP-1" value="FacialAnim에도 딜레이주기" style="rounded=1;whiteSpace=wrap;html=1;" parent="hDPYIisuoytdxOGGVnbc-3" vertex="1">
          <mxGeometry x="15" y="450" width="159" height="60" as="geometry" />
        </mxCell>
        <mxCell id="6kkVd8V_ymKgZ0_L0vxy-3" value="My Commit" style="swimlane;" parent="1" vertex="1">
          <mxGeometry x="49" y="730" width="1051" height="300" as="geometry">
            <mxRectangle x="49" y="720" width="100" height="23" as="alternateBounds" />
          </mxGeometry>
        </mxCell>
        <mxCell id="oumLD8d3DvaTa1NXrWpt-27" value="Tool" style="swimlane;horizontal=0;" parent="1" vertex="1">
          <mxGeometry x="827" y="50" width="270" height="340" as="geometry" />
        </mxCell>
        <mxCell id="oumLD8d3DvaTa1NXrWpt-25" value="" style="rounded=1;whiteSpace=wrap;html=1;" parent="oumLD8d3DvaTa1NXrWpt-27" vertex="1">
          <mxGeometry x="40" y="10" width="159" height="60" as="geometry" />
        </mxCell>
        <mxCell id="oumLD8d3DvaTa1NXrWpt-31" value="" style="group" parent="oumLD8d3DvaTa1NXrWpt-27" vertex="1" connectable="0">
          <mxGeometry x="31" y="90" width="220" height="80" as="geometry" />
        </mxCell>
        <mxCell id="oumLD8d3DvaTa1NXrWpt-28" value="" style="rounded=1;whiteSpace=wrap;html=1;" parent="oumLD8d3DvaTa1NXrWpt-31" vertex="1">
          <mxGeometry width="159" height="60" as="geometry" />
        </mxCell>
        <mxCell id="oumLD8d3DvaTa1NXrWpt-29" value="" style="rounded=0;whiteSpace=wrap;html=1;" parent="oumLD8d3DvaTa1NXrWpt-31" vertex="1">
          <mxGeometry x="100" y="60" width="120" height="20" as="geometry" />
        </mxCell>
        <mxCell id="oumLD8d3DvaTa1NXrWpt-30" value="" style="rounded=0;whiteSpace=wrap;html=1;" parent="oumLD8d3DvaTa1NXrWpt-31" vertex="1">
          <mxGeometry x="100" y="40" width="120" height="20" as="geometry" />
        </mxCell>
        <mxCell id="oumLD8d3DvaTa1NXrWpt-32" value="" style="swimlane;fillColor=#dae8fc;strokeColor=#6c8ebf;" parent="oumLD8d3DvaTa1NXrWpt-27" vertex="1">
          <mxGeometry x="31.5" y="180" width="219.5" height="60" as="geometry" />
        </mxCell>
        <mxCell id="oumLD8d3DvaTa1NXrWpt-34" value="" style="swimlane;" parent="oumLD8d3DvaTa1NXrWpt-27" vertex="1">
          <mxGeometry x="31" y="260" width="219" height="50" as="geometry" />
        </mxCell>
        <mxCell id="Fb32EvJjGHJRLybvlaYY-3" value="Text" style="text;html=1;align=left;verticalAlign=middle;resizable=0;points=[];autosize=1;strokeColor=none;" parent="oumLD8d3DvaTa1NXrWpt-27" vertex="1">
          <mxGeometry x="211" y="60" width="40" height="20" as="geometry" />
        </mxCell>
      </root>
    </mxGraphModel>
  </diagram>
</mxfile>
